<?xml version="1.0" encoding="UTF-8" standalone="no"?><!DOCTYPE svg PUBLIC "-//W3C//DTD SVG 1.1//EN" "http://www.w3.org/Graphics/SVG/1.1/DTD/svg11.dtd"><svg width="100%" height="100%" viewBox="0 0 240 240" version="1.1" xmlns="http://www.w3.org/2000/svg" xmlns:xlink="http://www.w3.org/1999/xlink" xml:space="preserve" xmlns:serif="http://www.serif.com/" style="fill-rule:evenodd;clip-rule:evenodd;stroke-linejoin:round;stroke-miterlimit:2;"><path d="M195.914,126.559l-20.378,20.383c-1.806,1.806 -4.172,2.71 -6.539,2.71c-2.367,0 -4.733,-0.904 -6.541,-2.71c-3.613,-3.609 -3.613,-9.467 0,-13.08l13.839,-13.843l-13.839,-13.843c-3.613,-3.613 -3.613,-9.471 0,-13.08c3.613,-3.613 9.467,-3.613 13.08,0l20.378,20.383c3.613,3.613 3.613,9.467 0,13.08Zm-66.663,17.235c0,5.108 -4.139,9.249 -9.251,9.249c-5.113,0 -9.25,-4.141 -9.25,-9.249l0,-89.194c0,-5.108 4.137,-9.25 9.25,-9.25c5.112,0 9.251,4.142 9.251,9.25l0,89.194Zm0,41.643c0,5.112 -4.139,9.251 -9.251,9.251c-5.113,0 -9.25,-4.139 -9.25,-9.251l0,-9.909c0,-5.114 4.137,-9.251 9.25,-9.251c5.112,0 9.251,4.137 9.251,9.251l0,9.909Zm-51.707,-51.575c3.613,3.613 3.613,9.471 0,13.08c-1.807,1.806 -4.173,2.71 -6.54,2.71c-2.367,0 -4.734,-0.904 -6.54,-2.71l-20.379,-20.383c-3.613,-3.613 -3.613,-9.467 0,-13.08l20.379,-20.383c3.613,-3.613 9.467,-3.613 13.08,0c3.613,3.609 3.613,9.467 0,13.08l-13.839,13.843l13.839,13.843Zm143.872,-36.997l-78.283,-78.286c-12.745,-12.741 -33.504,-12.755 -46.268,0.005l-78.282,78.277c-6.179,6.183 -9.584,14.399 -9.584,23.139c0,8.74 3.406,16.955 9.584,23.134l78.282,78.282c6.377,6.377 14.76,9.566 23.134,9.566c8.375,0 16.757,-3.189 23.134,-9.566l78.283,-78.277c6.178,-6.183 9.584,-14.399 9.584,-23.139c0,-8.74 -3.405,-16.955 -9.584,-23.134Z" style="fill:#e8f5e9;fill-rule:nonzero;"/></svg>